<svg xmlns="http://www.w3.org/2000/svg" xmlns:xlink="http://www.w3.org/1999/xlink"><symbol id="home"><g fill="none">
    <path fill="#1F1E1E" d="M0 0h110v110H0z"/>
    <path d="m63 51-6-5.26a3 3 0 0 0-4 0L47 51a3 3 0 0 0-1 2.26V62a3 3 0 0 0 3 3h12a3 3 0 0 0 3-3v-8.75A2.999 2.999 0 0 0 63 51Zm-6 12h-4v-5a1 1 0 0 1 1-1h2a1 1 0 0 1 1 1v5Zm5-1a1 1 0 0 1-1 1h-2v-5a3 3 0 0 0-3-3h-2a3 3 0 0 0-3 3v5h-2a1 1 0 0 1-1-1v-8.75a1 1 0 0 1 .34-.75l6-5.25a1 1 0 0 1 1.32 0l6 5.25a1 1 0 0 1 .34.75V62Z" fill="#BC3324"/>
    <path d="M62 62a1 1 0 0 1-1 1h-2v-5a3 3 0 0 0-3-3h-2a3 3 0 0 0-3 3v5h-2a1 1 0 0 1-1-1v-8.75a1 1 0 0 1 .34-.75l6-5.25a1 1 0 0 1 1.32 0l6 5.25a1 1 0 0 1 .34.75V62Z" fill="#BC3324"/>
</g></symbol><symbol id="insta"><g fill="none">
    <circle cx="29" cy="29" r="29" fill="#1F1E1E"/>
    <path d="M29 24a5 5 0 1 0 0 10 5 5 0 0 0 0-10Zm0 8.247a3.248 3.248 0 1 1 0-6.496 3.248 3.248 0 0 1 0 6.496ZM34 25a1 1 0 1 0 0-2 1 1 0 0 0 0 2Z" fill="#fff"/>
    <path d="M38.47 22.444a5.106 5.106 0 0 0-2.924-2.918 7.348 7.348 0 0 0-2.428-.466c-1.07-.047-1.408-.06-4.12-.06s-3.06 0-4.12.06c-.83.016-1.65.174-2.426.466a5.11 5.11 0 0 0-2.925 2.918 7.293 7.293 0 0 0-.465 2.424c-.048 1.067-.062 1.405-.062 4.114 0 2.708 0 3.053.062 4.114.017.83.173 1.648.465 2.425a5.11 5.11 0 0 0 2.926 2.919 7.321 7.321 0 0 0 2.427.499c1.07.047 1.408.061 4.12.061s3.06 0 4.12-.061a7.355 7.355 0 0 0 2.428-.465 5.125 5.125 0 0 0 2.924-2.92 7.296 7.296 0 0 0 .466-2.423c.048-1.067.062-1.405.062-4.114 0-2.71 0-3.053-.062-4.114a7.286 7.286 0 0 0-.468-2.459Zm-1.352 10.57a5.585 5.585 0 0 1-.346 1.872 3.312 3.312 0 0 1-1.901 1.897 5.544 5.544 0 0 1-1.855.345c-1.055.049-1.353.061-4.058.061-2.708 0-2.984 0-4.06-.06a5.514 5.514 0 0 1-1.853-.346 3.316 3.316 0 0 1-1.91-1.897 5.627 5.627 0 0 1-.345-1.85c-.047-1.054-.058-1.351-.058-4.053s0-2.978.058-4.053a5.579 5.579 0 0 1 .346-1.87 3.314 3.314 0 0 1 1.909-1.899 5.571 5.571 0 0 1 1.853-.345c1.057-.047 1.353-.06 4.06-.06 2.706 0 2.984 0 4.058.06.634.008 1.26.125 1.855.345a3.322 3.322 0 0 1 1.901 1.899c.218.593.335 1.219.346 1.85.047 1.055.06 1.351.06 4.053s0 2.992-.048 4.052h-.013Z" fill="#fff"/>
</g></symbol><symbol id="krug"><g fill="none">
    <path fill="#1F1E1E" d="M0 0h110v110H0z"/>
    <circle cx="55" cy="55" r="9" fill="#BC3324"/>
</g></symbol><symbol id="ok" viewBox="0 0 26 26"><g fill="none">
    <circle cx="13" cy="13" r="13" fill="#1F1E1E"/>
    <path d="M19.71 8.21a1 1 0 0 0-1.42 0l-7.45 7.46-3.13-3.14A1.02 1.02 0 1 0 6.29 14l3.84 3.84a1.002 1.002 0 0 0 1.42 0l8.16-8.16a1 1 0 0 0 0-1.47Z" fill="#fff"/>
</g></symbol><symbol id="star"><g fill="none">
    <path fill="#1F1E1E" d="M0 0h110v110H0z"/>
    <path d="M64.663 51.772a1 1 0 0 1 .33.462 1 1 0 0 1-.32 1.02l-4.13 4 1 5.68a1 1 0 0 1-.99 1.19.93.93 0 0 1-.46-.12l-5.1-2.68-5.12 2.67a1 1 0 0 1-1.45-1.07l1-5.68-4.13-4a1 1 0 0 1-.25-1 1 1 0 0 1 .81-.68l5.69-.84 2.55-5.16a1 1 0 0 1 1.8 0l2.55 5.17 5.69.83a1 1 0 0 1 .53.208Z" fill="#BC3324"/>
</g></symbol><symbol id="vk"><g fill="none">
    <circle cx="29" cy="29" r="29" fill="#1F1E1E"/>
    <path d="M22.71 19A3.725 3.725 0 0 0 19 22.71v12.58A3.725 3.725 0 0 0 22.71 39h12.58A3.725 3.725 0 0 0 39 35.29V22.71A3.725 3.725 0 0 0 35.29 19H22.71Zm0 1.818h12.58c1.054 0 1.892.838 1.892 1.893v12.578a1.881 1.881 0 0 1-1.893 1.893H22.711a1.88 1.88 0 0 1-1.893-1.893V22.711c0-1.055.838-1.893 1.893-1.893Z" fill="#fff"/>
    <path fill-rule="evenodd" clip-rule="evenodd" d="M34.725 26.406c.083-.234 0-.406-.398-.406h-1.312c-.334 0-.488.149-.572.313 0 0-.667 1.37-1.613 2.26-.306.257-.445.34-.612.34-.083 0-.209-.083-.209-.317v-2.19c0-.28-.092-.406-.37-.406h-2.064c-.208 0-.334.13-.334.254 0 .266.473.328.522 1.077v1.628c0 .357-.077.422-.244.422-.445 0-1.527-1.377-2.17-2.951-.124-.307-.25-.43-.585-.43H23.45c-.375 0-.45.149-.45.313 0 .292.445 1.744 2.073 3.665C26.157 31.289 27.684 32 29.076 32c.835 0 .938-.158.938-.43v-.991c0-.316.079-.379.343-.379.195 0 .529.082 1.308.714.89.75 1.036 1.086 1.537 1.086h1.313c.375 0 .563-.158.455-.47-.12-.31-.544-.76-1.108-1.295-.306-.304-.765-.632-.904-.796-.195-.21-.14-.304 0-.492 0 0 1.6-1.897 1.766-2.54Z" fill="#fff"/>
</g></symbol><symbol id="X" viewBox="0 0 24 24"><g fill="none">
    <path d="M18 6 6 18M6 6l12 12" stroke="#fff" stroke-width="2" stroke-linecap="round" stroke-linejoin="round"/>
</g></symbol></svg>