<svg width="90" height="91" viewBox="0 0 90 91" fill="none" xmlns="http://www.w3.org/2000/svg">
<rect x="28.5" y="27.5" width="61" height="36" stroke="#BC3324"/>
<path d="M62.0645 45.2559C62.0645 48.0488 61.4622 50.0703 60.2578 51.3203C59.0534 52.5703 57.1263 53.1953 54.4766 53.1953C53.6042 53.1953 52.9401 53.1628 52.4844 53.0977V50.041C53.0443 50.1452 53.6042 50.1973 54.1641 50.1973C55.5443 50.1973 56.6087 49.9141 57.3574 49.3477C58.1061 48.7747 58.513 47.873 58.5781 46.6426H58.4609C58.207 47.1113 57.9564 47.4499 57.709 47.6582C57.4616 47.8665 57.1589 48.026 56.8008 48.1367C56.4427 48.2474 55.9967 48.3027 55.4629 48.3027C54.2259 48.3027 53.2591 47.8893 52.5625 47.0625C51.8659 46.2357 51.5176 45.0964 51.5176 43.6445C51.5176 42.0625 51.9668 40.8223 52.8652 39.9238C53.7702 39.0254 55.0072 38.5762 56.5762 38.5762C58.321 38.5762 59.6719 39.1556 60.6289 40.3145C61.5859 41.4733 62.0645 43.1204 62.0645 45.2559ZM56.6836 41.6621C56.2604 41.6621 55.9154 41.8151 55.6484 42.1211C55.388 42.4271 55.2578 42.9186 55.2578 43.5957C55.2578 44.1296 55.3717 44.556 55.5996 44.875C55.8275 45.1875 56.1758 45.3438 56.6445 45.3438C57.0677 45.3438 57.4355 45.1908 57.748 44.8848C58.0605 44.5788 58.2168 44.2109 58.2168 43.7812C58.2168 43.2018 58.0703 42.7038 57.7773 42.2871C57.4909 41.8704 57.1263 41.6621 56.6836 41.6621Z" fill="#BC3324"/>
<circle cx="57" cy="79" r="11.5" transform="rotate(180 57 79)" stroke="#BC3324"/>
<circle cx="12" cy="43" r="11.5" transform="rotate(180 12 43)" stroke="#BC3324"/>
<circle cx="57" cy="12" r="11.5" transform="rotate(180 57 12)" stroke="#BC3324"/>
</svg>
